<?xml version="1.0" standalone="no"?>
<!DOCTYPE svg PUBLIC "-//W3C//DTD SVG 20010904//EN"
 "http://www.w3.org/TR/2001/REC-SVG-20010904/DTD/svg10.dtd">
<svg version="1.0" xmlns="http://www.w3.org/2000/svg"
 width="700.000000pt" height="700.000000pt" viewBox="0 0 700.000000 700.000000"
 preserveAspectRatio="xMidYMid meet">
<metadata>
Created by potrace 1.14, written by Peter Selinger 2001-2017
</metadata>
<g transform="translate(0.000000,700.000000) scale(0.100000,-0.100000)"
fill="#000000" stroke="none">
<path d="M1660 6769 c-562 -72 -1038 -415 -1280 -921 -80 -168 -126 -325 -149
-518 -15 -117 -15 -3543 0 -3660 25 -207 71 -358 164 -545 84 -168 174 -294
305 -425 131 -131 257 -221 425 -305 187 -93 338 -139 545 -164 56 -7 668 -11
1835 -11 1443 0 1768 3 1855 14 357 48 685 211 940 466 131 132 222 258 305
425 72 145 113 262 147 422 l23 108 3 1785 c3 1813 2 1874 -34 2048 -40 194
-149 440 -271 612 -257 359 -670 607 -1113 666 -87 11 -409 13 -1870 13 -971
-1 -1794 -5 -1830 -10z m2620 -1504 l0 -205 -495 0 -495 0 0 -665 0 -665 400
0 400 0 0 -195 0 -195 -400 0 -400 0 0 -730 0 -730 500 0 500 0 0 -200 0 -200
-775 0 -775 0 0 1995 0 1995 770 0 770 0 0 -205z"/>
</g>
</svg>
